<?xml version="1.0" standalone="no"?>
<!DOCTYPE svg PUBLIC "-//W3C//DTD SVG 20010904//EN"
 "http://www.w3.org/TR/2001/REC-SVG-20010904/DTD/svg10.dtd">
<svg version="1.0" xmlns="http://www.w3.org/2000/svg"
 width="500.000000pt" height="500.000000pt" viewBox="0 0 500.000000 500.000000"
 preserveAspectRatio="xMidYMid meet">
<metadata>
Created by potrace 1.11, written by Peter Selinger 2001-2013
</metadata>
<g transform="translate(0.000000,500.000000) scale(0.100000,-0.100000)"
fill="#000000" stroke="none">
<path d="M2327 4459 c-6 -4 -37 -9 -67 -12 -88 -10 -294 -66 -385 -106 -116
-51 -271 -136 -295 -161 -3 -3 -32 -25 -65 -50 -33 -24 -99 -83 -146 -130 -72
-71 -108 -115 -196 -236 -52 -70 -157 -296 -178 -384 -24 -93 -26 -97 -68
-110 -330 -103 -595 -360 -701 -680 -46 -141 -55 -193 -54 -340 1 -217 54
-394 169 -570 98 -148 259 -293 409 -370 64 -32 180 -81 180 -75 0 3 12 0 28
-6 15 -6 72 -19 127 -28 86 -15 167 -18 586 -17 461 1 488 2 508 20 11 10 25
32 30 50 13 44 8 366 -7 392 -22 41 -47 44 -552 47 -465 3 -488 4 -550 25 -67
22 -167 78 -217 122 -16 14 -47 48 -69 75 -81 101 -115 193 -119 318 -7 231
113 423 325 523 89 41 114 47 270 60 83 6 129 27 146 65 7 13 14 60 17 104 18
259 114 477 285 652 77 77 110 103 204 161 280 171 631 204 943 87 155 -58
255 -123 394 -255 43 -42 124 -160 168 -245 66 -130 87 -209 109 -410 4 -38 8
-72 9 -75 14 -57 50 -76 160 -84 124 -10 183 -24 270 -67 97 -47 170 -109 224
-189 59 -90 87 -169 96 -280 6 -67 30 -102 76 -112 52 -11 337 -9 379 2 54 14
69 52 65 154 -6 132 -48 283 -114 411 -19 39 -39 75 -43 80 -5 6 -30 39 -57
75 -124 166 -322 309 -514 370 -38 12 -70 27 -72 34 -15 58 -71 226 -81 246
-7 14 -27 54 -44 90 -18 36 -39 72 -46 81 -8 8 -14 19 -14 23 0 5 -23 39 -50
77 -190 260 -447 454 -743 558 -198 69 -334 92 -560 95 -86 1 -163 -1 -170 -5z"/>
<path d="M3913 2188 c-64 -62 -140 -135 -168 -163 -29 -27 -148 -142 -265
-255 -117 -113 -232 -224 -256 -247 l-42 -41 -73 69 c-41 38 -112 107 -159
153 -96 94 -114 106 -164 106 -40 0 -46 -5 -204 -157 -153 -147 -153 -169 -5
-311 54 -52 177 -170 273 -262 96 -93 199 -191 228 -219 29 -28 59 -51 65 -52
7 0 20 -2 31 -4 25 -5 58 9 88 37 29 26 399 382 493 473 78 77 440 425 550
530 140 134 138 150 -41 320 -70 66 -134 123 -143 127 -9 4 -33 7 -54 7 -34 1
-46 -8 -154 -111z"/>
</g>
</svg>
